<svg width="200" height="180" viewBox="0 0 200 180" fill="none" xmlns="http://www.w3.org/2000/svg">
<path d="M102.5 180C150.825 180 190 177.09 190 173.5C190 169.91 150.825 167 102.5 167C54.1751 167 15 169.91 15 173.5C15 177.09 54.1751 180 102.5 180Z" fill="#E4E6E8"/>
<path d="M187.857 38.5346C187.832 38.4955 187.805 38.4576 187.777 38.4213C187.75 38.387 187.722 38.3541 187.692 38.3227C185.756 36.0685 182.767 34.9318 179.955 34.2314C176.653 33.4086 173.229 33.0981 169.839 32.8907C160.915 32.3376 151.998 31.6894 143.076 31.091C132.769 30.4008 122.451 29.6993 112.122 29.4228C106.952 29.2845 101.778 29.2641 96.608 29.4318C92.581 29.5622 88.3088 29.4477 84.5654 31.1511C81.5142 32.5394 79.3458 35.2095 78.8919 38.5561C78.5674 40.9361 78.6366 43.4237 78.5617 45.8275C78.4861 48.3782 78.4248 50.9293 78.3779 53.4808C78.21 63.6976 78.3609 73.9235 79.0043 84.1233C79.2823 88.5297 79.6216 92.9428 80.0947 97.3321C80.4011 100.165 80.9866 103.315 83.551 105C85.1146 106.027 86.9642 106.055 88.7706 106.156C91.3294 106.298 93.8847 106.485 96.4378 106.701C101.475 107.126 106.5 107.668 111.529 108.207C116.615 108.753 121.702 109.298 126.8 109.72C130.759 110.049 134.731 110.295 138.667 110.854C142.515 111.398 146.356 112.205 149.981 113.631C151.773 114.334 153.488 115.222 155.095 116.281C156.823 117.425 158.314 118.842 159.824 120.248C161.494 121.804 163.115 123.421 164.4 125.315C164.929 126.099 166.155 126.004 166.442 125.048C167.419 121.738 165.316 117.991 167.178 114.901C168.57 112.593 171.788 112.599 174.155 112.239C177.899 111.672 182.6 111.463 184.707 107.791C185.928 105.668 186.204 103.101 186.451 100.713C186.892 96.4568 187.308 92.1993 187.699 87.9403C188.467 79.462 189.095 70.9689 189.449 62.4634C189.638 57.9664 189.619 53.4592 189.845 48.9645C190.012 45.3549 190.135 41.5572 187.857 38.5346ZM187.593 49.113C187.397 53.0093 187.416 56.917 187.269 60.8167C186.957 69.1398 186.375 77.4515 185.65 85.7496C185.288 89.893 184.895 94.033 184.472 98.1696C184.207 100.793 184.169 103.761 183.02 106.199C181.395 109.649 176.633 109.624 173.306 110.134C170.387 110.587 167.275 110.829 165.442 113.469C164.373 115.01 164.069 116.903 164.178 118.74C164.238 119.76 164.421 120.804 164.491 121.841C163.667 120.891 162.781 119.992 161.863 119.121C160.407 117.743 158.946 116.351 157.336 115.155C154.303 112.888 150.755 111.374 147.131 110.33C139.415 108.11 131.273 107.934 123.329 107.198C113.445 106.281 103.594 105.01 93.6941 104.262C92.5375 104.175 91.3808 104.095 90.2242 104.023C89.0237 103.948 87.7732 103.981 86.5829 103.797C85.2712 103.589 84.1706 102.949 83.492 101.793C82.0509 99.3358 82.1939 95.9597 81.9375 93.2114C81.0082 83.2858 80.5997 73.316 80.5452 63.3485C80.518 58.3619 80.5739 53.3754 80.7131 48.3888C80.7789 45.9008 80.8614 43.4143 80.9605 40.9293C81.032 39.1239 81.1647 37.4376 82.1837 35.8861C83.8858 33.2885 87.2581 32.2413 90.2038 31.984C95.1431 31.5534 100.152 31.5307 105.106 31.5522C115.08 31.5862 125.041 32.1767 134.993 32.808C144.966 33.4415 154.928 34.2133 164.901 34.8547C167.9 35.0474 170.904 35.1392 173.892 35.4611C177.003 35.8011 180.298 36.302 183.132 37.6937C184.308 38.2705 185.357 38.9959 186.196 40.0068C188.141 42.4978 187.741 46.1607 187.593 49.113Z" fill="#9DA2A4"/>
<path d="M120.42 54.3073C120.1 46.714 119.49 39.1378 118.512 31.6069C118.047 28.0325 117.507 24.467 116.822 20.9266C116.521 19.3717 116.192 17.8224 115.824 16.28C115.437 14.6627 115.107 12.9389 114.349 11.4486C113.24 9.2772 111.172 8.81594 108.903 8.93268C104.919 9.27267 100.952 9.91186 97.0029 10.5284C90.9686 11.4702 84.9478 12.5038 78.9328 13.5691C71.9915 14.7976 65.0584 16.0718 58.1337 17.3917C51.5056 18.6528 44.8865 19.9564 38.2765 21.3028C33.1805 22.3466 28.0857 23.4097 23.0227 24.6042C21.4341 24.9793 19.8455 25.3612 18.2683 25.8089C17.4626 26.0355 16.5174 26.2452 15.8003 26.6963C14.8381 27.3015 14.9901 28.7215 14.9595 29.7143C14.8891 31.9809 14.9152 34.2532 14.9402 36.5221C15.0196 43.6416 15.2341 50.76 15.5076 57.8738C15.7606 64.5445 16.0295 71.2243 16.5708 77.8791C16.6177 78.4488 16.668 79.0181 16.7217 79.587C16.8079 80.4937 16.6082 81.5238 16.9849 82.3795C17.4967 83.5547 18.7483 83.9049 19.8762 84.2302C21.3513 84.6541 22.8321 85.0598 24.3185 85.4474C29.5438 86.8074 34.8292 87.9146 40.0909 89.1386C42.2729 89.6475 44.447 90.1846 46.6086 90.7728C46.0741 97.4084 44.4231 103.927 43.5449 110.519C43.4314 111.389 44.5661 111.864 45.222 111.481C47.2406 110.301 49.0482 108.689 50.8285 107.19C53.2205 105.174 55.5602 103.095 57.883 100.999C59.7408 99.3222 61.5855 97.6317 63.4169 95.9272C63.6529 95.7084 64.0977 95.4194 64.3439 95.127C64.4359 95.1055 64.5289 95.0794 64.6185 95.0636C66.0051 94.8097 66.8142 94.744 68.3472 94.5581C70.511 94.2952 72.6761 94.0447 74.8411 93.7897C80.6405 93.1097 86.4388 92.4014 92.2224 91.5866C97.8119 90.7989 103.415 89.9534 108.922 88.6989C110.901 88.2455 112.893 87.7571 114.792 87.0318C116.025 86.5614 117.429 86.0118 118.227 84.8955C119.041 83.7621 119.343 82.2435 119.589 80.9005C120.013 78.6339 120.223 76.3208 120.373 74.0202C120.796 67.4673 120.697 60.868 120.42 54.3073ZM17.0292 28.5617C16.9157 28.6932 16.9066 28.6376 17.0292 28.5617V28.5617ZM118.294 71.0225C118.196 73.5385 118.046 76.0624 117.715 78.5602C117.609 79.3615 117.448 80.3384 117.254 81.1974C117.113 81.8195 116.934 82.4323 116.717 83.0323C116.717 83.0391 116.604 83.2726 116.579 83.3179C116.529 83.4085 116.474 83.4969 116.423 83.5876C116.41 83.6114 116.401 83.6295 116.393 83.6454L116.369 83.6669C116.289 83.744 116.211 83.8211 116.131 83.8936C116.112 83.9106 116.1 83.9231 116.092 83.9321L116.001 83.9865C115.9 84.0489 115.803 84.1146 115.699 84.1758C115.416 84.3435 115.118 84.4863 114.819 84.6291L114.632 84.7107L114.518 84.7572C114.345 84.8263 114.17 84.8943 113.994 84.9589C113.571 85.1165 113.142 85.2592 112.712 85.3952C111.764 85.6933 110.805 85.9517 109.842 86.1886C104.622 87.4874 99.2814 88.3192 93.963 89.1001C84.3272 90.5144 74.6221 91.3814 64.985 92.7629C64.2486 92.8683 63.4316 92.9012 62.8461 93.4044C61.6297 94.4504 60.4894 95.5974 59.3081 96.6808C55.0644 100.575 50.8138 104.538 46.2455 108.053L46.1093 108.156C47.0636 102.09 48.4842 96.0734 48.8882 89.9399C48.92 89.4548 48.5194 88.9913 48.0701 88.8666C43.1636 87.4953 38.1823 86.4288 33.2157 85.3023C30.5469 84.6971 27.8826 84.0693 25.2342 83.3836C23.8151 83.0164 22.4001 82.6322 20.9893 82.231C20.4662 82.0826 19.7048 82.0044 19.2509 81.6814C18.7971 81.3584 19.024 80.6308 18.9956 80.1163C18.6189 74.1607 18.1628 68.2164 17.9063 62.2563C17.5954 54.9918 17.3685 47.7238 17.2255 40.4525C17.1744 37.7098 17.1347 34.9649 17.1472 32.2212C17.1472 31.3145 17.1597 30.4079 17.1926 29.4933C17.2028 29.1896 17.2153 28.8858 17.238 28.5866C17.238 28.5458 17.2436 28.5062 17.2482 28.4654L17.3367 28.4325C17.5364 28.3634 17.735 28.2954 17.9358 28.2319C19.2419 27.8171 20.5774 27.4885 21.9073 27.1621C26.5108 26.0287 31.1528 25.0518 35.7926 24.0851C42.0584 22.781 48.3344 21.5265 54.6207 20.3214C61.4493 19.0052 68.2859 17.7306 75.1304 16.4976C81.3384 15.379 87.552 14.2933 93.7781 13.2812C98.1773 12.565 102.616 11.851 106.854 11.3636C107.535 11.2854 108.216 11.2129 108.897 11.1551C109.9 11.1041 111.098 10.9828 111.87 11.7569C112.565 12.4539 112.805 13.5351 113.056 14.4553C113.449 15.9037 113.798 17.3657 114.118 18.8333C114.822 22.0712 115.384 25.3386 115.864 28.6161C116.943 35.9668 117.609 43.3821 118.02 50.7985C118.39 57.5315 118.558 64.2872 118.294 71.0225Z" fill="#9DA2A4"/>
<path d="M106.857 2.13348C111.502 1.0659 116.703 1.93175 120.074 5.49716C121.556 7.06454 122.616 9.09544 122.85 11.2544C123.139 13.9052 122.456 16.5595 122.893 19.208C122.999 19.8574 123.172 20.5215 123.679 20.9794C124.211 21.461 124.942 21.4984 125.618 21.4055C127.173 21.1902 128.719 20.8842 130.27 20.6213C131.348 20.4377 130.891 18.7989 129.817 18.9814C128.415 19.2205 127.015 19.463 125.618 19.6976C125.13 19.7792 124.796 19.8597 124.656 19.3248C124.503 18.6699 124.43 17.9991 124.437 17.3267C124.394 14.7541 124.922 12.1951 124.291 9.65303C123.174 5.1583 119.343 1.75949 114.954 0.560441C112.169 -0.201147 109.215 -0.150147 106.414 0.493576C105.347 0.739505 105.799 2.37828 106.867 2.13348H106.857Z" fill="#9DA2A4"/>
<path d="M17.8439 17.0982C14.6667 17.5051 11.7676 19.0532 9.56056 21.3754C7.18903 23.8686 5.74797 27.1224 5.20785 30.5042C4.89093 32.5105 4.83715 34.5495 5.04786 36.5697C5.09438 37.023 5.40529 37.4197 5.89888 37.4197C6.32213 37.4197 6.79643 37.0298 6.74991 36.5697C6.12809 30.4713 7.92432 23.7746 13.4344 20.4018C14.7738 19.5629 16.2758 19.0163 17.8416 18.7982C18.2955 18.7404 18.6926 18.4491 18.6926 17.9482C18.6926 17.5345 18.3012 17.0416 17.8416 17.0982H17.8439Z" fill="#9DA2A4"/>
<path d="M69.5544 102.786C70.553 102.369 71.6321 101.903 72.7316 101.93C73.7335 101.955 74.5029 102.553 75.0339 103.365C76.231 105.197 76.4341 107.461 76.9493 109.536C77.4032 111.375 78.1611 113.321 79.6419 114.584C81.395 116.079 83.7268 116.269 85.9338 116.467C88.7706 116.719 91.6215 116.771 94.4656 116.625C95.5561 116.569 95.5629 114.868 94.4656 114.925C91.9171 115.056 89.3628 115.028 86.8178 114.84C84.7753 114.687 82.1746 114.686 80.6019 113.16C79.1824 111.785 78.716 109.737 78.3177 107.876C77.8638 105.745 77.41 103.492 75.9609 101.783C75.5854 101.333 75.1224 100.965 74.5998 100.699C74.0772 100.433 73.5061 100.277 72.9211 100.238C71.5935 100.152 70.2999 100.645 69.0994 101.145C68.6773 101.322 68.3698 101.712 68.5048 102.191C68.6183 102.59 69.1232 102.964 69.551 102.785L69.5544 102.786Z" fill="#9DA2A4"/>
<path d="M196.209 87.0951C196.216 95.2369 196.202 104.067 191.862 111.271C190.787 113.056 189.397 114.944 187.25 115.433C186.183 115.675 186.634 117.315 187.704 117.071C189.786 116.599 191.335 115.051 192.534 113.361C193.79 111.584 194.748 109.595 195.496 107.556C197.009 103.432 197.557 99.0052 197.777 94.6363C197.903 92.1226 197.914 89.6066 197.912 87.0906C197.912 85.997 196.21 85.9947 196.21 87.0906L196.209 87.0951Z" fill="#9DA2A4"/>
<path d="M180.843 116.941L179.076 117.604C178.646 117.765 178.353 118.177 178.482 118.649C178.595 119.061 179.096 119.405 179.529 119.243L181.296 118.581C181.726 118.42 182.02 118.006 181.89 117.535C181.777 117.122 181.277 116.78 180.843 116.941Z" fill="#9DA2A4"/>
<path d="M185.703 30.9902C188.897 31.5455 192.118 32.7027 194.448 35.0396C196.899 37.4977 197.94 41.0031 198.209 44.386C198.388 46.6311 198.279 48.8842 198.137 51.1281C198.069 52.2195 199.771 52.2161 199.839 51.1281C200.092 47.123 200.218 42.9682 198.867 39.132C197.64 35.6425 195.263 32.8579 191.945 31.1987C190.123 30.2864 188.16 29.7016 186.158 29.3526C185.087 29.1667 184.626 30.8043 185.704 30.9925L185.703 30.9902Z" fill="#9DA2A4"/>
<path d="M5.27541 42.5906L5.29583 45.8897C5.30264 46.9822 7.00469 46.9856 6.99788 45.8897L6.97746 42.5906C6.97065 41.497 5.2686 41.4947 5.27541 42.5906Z" fill="#9DA2A4"/>
<path d="M133.551 19.6144L136.185 18.9208C137.242 18.642 136.794 17.0021 135.731 17.282L133.097 17.9745C132.04 18.2533 132.488 19.8943 133.551 19.6144Z" fill="#9DA2A4"/>
<path d="M9.54231 62.9611C10.0988 60.925 8.89744 58.8239 6.85888 58.268C4.82033 57.7122 2.71658 58.9121 2.16005 60.9482C1.60351 62.9842 2.80492 65.0854 4.84348 65.6412C6.88203 66.1971 8.98577 64.9971 9.54231 62.9611Z" fill="#9DA2A4"/>
<path d="M186.393 21.9504C186.878 19.8963 185.605 17.838 183.548 17.3532C181.491 16.8684 179.431 18.1406 178.945 20.1947C178.46 22.2489 179.734 24.3071 181.79 24.7919C183.847 25.2767 185.908 24.0045 186.393 21.9504Z" fill="#9DA2A4"/>
<path d="M114.57 125.377C116.684 125.377 118.397 123.666 118.397 121.556C118.397 119.445 116.684 117.734 114.57 117.734C112.457 117.734 110.744 119.445 110.744 121.556C110.744 123.666 112.457 125.377 114.57 125.377Z" fill="#9DA2A4"/>
<path d="M1.24136 56.1653C1.92695 56.1653 2.48272 55.6102 2.48272 54.9254C2.48272 54.2407 1.92695 53.6855 1.24136 53.6855C0.555777 53.6855 0 54.2407 0 54.9254C0 55.6102 0.555777 56.1653 1.24136 56.1653Z" fill="#9DA2A4"/>
<path d="M186.209 14.4132C187.391 14.4132 188.348 13.4568 188.348 12.2769C188.348 11.0971 187.391 10.1406 186.209 10.1406C185.028 10.1406 184.07 11.0971 184.07 12.2769C184.07 13.4568 185.028 14.4132 186.209 14.4132Z" fill="#9DA2A4"/>
<path d="M176.204 16.46C176.846 16.46 177.367 15.9399 177.367 15.2984C177.367 14.6568 176.846 14.1367 176.204 14.1367C175.562 14.1367 175.041 14.6568 175.041 15.2984C175.041 15.9399 175.562 16.46 176.204 16.46Z" fill="#9DA2A4"/>
<path d="M119.344 116.124C119.937 115.878 120.219 115.199 119.973 114.606C119.727 114.013 119.047 113.732 118.453 113.977C117.86 114.223 117.578 114.902 117.824 115.495C118.07 116.088 118.75 116.369 119.344 116.124Z" fill="#9DA2A4"/>
</svg>
