<svg width="20" height="20" viewBox="0 0 20 20" fill="none" xmlns="http://www.w3.org/2000/svg">
<rect width="20" height="20" rx="4" fill="#1FBEDC"/>
<path d="M16.7318 5.1991C16.6041 5.0716 16.431 5 16.2505 5C16.07 5 15.8969 5.0716 15.7691 5.1991L7.61136 13.3581L4.47453 10.2213C4.34507 10.1028 4.17487 10.0388 3.99939 10.0426C3.82391 10.0465 3.65669 10.1179 3.53258 10.242C3.40847 10.3661 3.33704 10.5334 3.33317 10.7088C3.32931 10.8843 3.39331 11.0545 3.51185 11.184L7.12877 14.8009C7.25652 14.9284 7.42963 15 7.61011 15C7.7906 15 7.96371 14.9284 8.09145 14.8009L16.7318 6.16053C16.8589 6.03284 16.9303 5.85999 16.9303 5.67981C16.9303 5.49963 16.8589 5.32679 16.7318 5.1991Z" fill="white"/>
</svg>
